<svg width="296" height="322" viewBox="0 0 296 322" fill="none" xmlns="http://www.w3.org/2000/svg">
<path d="M247.633 260.67C272.337 240.365 284.689 230.213 290.455 217.58C295.531 206.459 297.091 194.054 294.927 182.023C292.468 168.356 283.015 155.461 264.108 129.671L211.917 58.4834C189.06 27.3054 177.631 11.7164 163.117 5.22763C150.378 -0.46739 136.053 -1.54704 122.605 2.17426C107.282 6.41422 93.6453 20.1141 66.3727 47.5138L39.6339 74.3772C19.4698 94.6353 9.38779 104.764 4.86261 115.313C-3.35999 134.48 -1.0452 156.542 10.9768 173.585C17.5929 182.965 29.5578 190.78 53.4876 206.412L63.3721 212.869C64.2446 213.439 64.6808 213.724 65.0906 214.001C80.2689 224.277 89.9211 240.924 91.299 259.201C91.3362 259.695 91.3668 260.215 91.428 261.255V261.255C91.6367 264.804 91.7411 266.579 91.8548 267.739C96.4315 314.478 150.482 338.1 187.892 309.713C188.821 309.008 190.195 307.879 192.941 305.622L247.633 260.67Z" fill="#B52FF8"/>
</svg>
