<svg width="18" height="18" viewBox="0 0 18 18" fill="none" xmlns="http://www.w3.org/2000/svg">
<path d="M8.33488 16.8163C12.3403 16.8163 15.6697 13.3358 15.6697 9.13215C15.6697 4.936 12.3331 1.448 8.32768 1.448C4.31508 1.448 1 4.936 1 9.13215C1 13.3358 4.32227 16.8163 8.33488 16.8163ZM8.32768 13.7502C8.11912 13.7502 7.95377 13.592 7.95377 13.3585V12.7859C6.92543 12.6729 6.06969 12.0853 5.84677 11.1512C5.83239 11.0683 5.81081 10.9929 5.81081 10.9025C5.81081 10.6238 6.00497 10.4279 6.26385 10.4279C6.49396 10.4279 6.65216 10.556 6.73846 10.8347C6.8679 11.3696 7.2706 11.7689 7.95377 11.8743V9.49378L7.90345 9.4787C6.62341 9.15478 5.96182 8.54454 5.96182 7.51245C5.96182 6.41257 6.7888 5.65168 7.95377 5.50855V4.95861C7.95377 4.72507 8.11192 4.56686 8.32768 4.56686C8.53623 4.56686 8.70159 4.73259 8.70159 4.95861V5.50855C9.68676 5.62908 10.4706 6.23176 10.6719 7.10565C10.6935 7.18851 10.7079 7.27138 10.7079 7.35425C10.7079 7.63299 10.521 7.82886 10.2549 7.82886C10.0104 7.82886 9.8594 7.67819 9.78028 7.42958C9.62924 6.88718 9.24813 6.54817 8.70159 6.4427V8.69518L8.79511 8.71027C10.1183 9.04172 10.8158 9.62938 10.8158 10.7217C10.8158 11.9497 9.89531 12.6729 8.70159 12.7934V13.3585C8.70159 13.5844 8.53623 13.7502 8.32768 13.7502ZM7.95377 8.49181V6.4427C7.31375 6.56324 6.91824 6.97757 6.91824 7.46725C6.91824 7.93433 7.21307 8.28087 7.89625 8.47674L7.95377 8.49181ZM8.70159 9.6821V11.8743C9.4854 11.7764 9.8594 11.3546 9.8594 10.782C9.8594 10.2547 9.57892 9.96838 8.7735 9.71227L8.70159 9.6821Z" fill="#2B47FC"/>
</svg>
