<svg width="25" height="21" viewBox="0 0 25 21" fill="none" xmlns="http://www.w3.org/2000/svg">
<path d="M1 6.75195H20.3008V5.93457C20.3008 4.12402 19.3779 3.20996 17.541 3.20996H3.75977C1.92285 3.20996 1 4.12402 1 5.93457V6.75195ZM1 15.2773C1 17.0879 1.92285 17.9932 3.75977 17.9932H17.541C19.3779 17.9932 20.3008 17.0879 20.3008 15.2773V8.74707H1V15.2773ZM3.93555 13.1328V11.5068C3.93555 11.0146 4.27832 10.6631 4.79687 10.6631H6.95019C7.46875 10.6631 7.81152 11.0146 7.81152 11.5068V13.1328C7.81152 13.6338 7.46875 13.9766 6.95019 13.9766H4.79687C4.27832 13.9766 3.93555 13.6338 3.93555 13.1328Z" fill="#2B47FC"/>
</svg>
