<svg width="119" height="119" viewBox="0 0 119 119" fill="none" xmlns="http://www.w3.org/2000/svg">
<rect x="40.0098" y="-13.2384" width="106.496" height="106.496" rx="36" transform="rotate(30 40.0098 -13.2384)" fill="#B52FF8"/>
<rect x="74.8612" y="-12.769" width="104.487" height="104.487" rx="36" transform="rotate(57 74.8612 -12.769)" fill="#40CEF2"/>
<rect x="9.26583" y="9.26585" width="100.468" height="100.468" rx="36" fill="#FFFEFE"/>
<g clip-path="url(#clip0_9_27)">
<path d="M74.4567 49.7159C73.7951 48.9968 72.8816 48.572 71.8421 48.572H66.613V48.5066C66.613 47.6895 66.298 46.9052 65.7624 46.3822C65.2269 45.8266 64.5024 45.4998 63.7149 45.4998H54.2647C53.4456 45.4998 52.7211 45.8266 52.1856 46.3822C51.6501 46.9378 51.3351 47.6895 51.3351 48.5066V48.572H46.1375C45.0979 48.572 44.1844 48.9968 43.5229 49.7159C42.8614 50.4022 42.4204 51.3827 42.4204 52.4285V68.7044C42.4204 69.7829 42.8299 70.7307 43.5229 71.417C44.1844 72.1033 45.1294 72.5609 46.1375 72.5609H71.8421C72.8816 72.5609 73.7951 72.136 74.4567 71.417C75.1182 70.7307 75.5592 69.7502 75.5592 68.7044V52.4285C75.5592 51.35 75.1497 50.4022 74.4567 49.7159ZM73.9211 68.7044H73.8896C73.8896 69.2927 73.6691 69.8156 73.2911 70.2078C72.9131 70.6 72.4091 70.8287 71.8421 70.8287H46.1375C45.5705 70.8287 45.0664 70.6 44.6884 70.2078C44.3104 69.8156 44.0899 69.2927 44.0899 68.7044V52.4285C44.0899 51.8402 44.3104 51.3173 44.6884 50.9251C45.0664 50.5329 45.5705 50.3041 46.1375 50.3041H52.2171C52.6896 50.3041 53.0676 49.912 53.0676 49.4217V48.4739C53.0676 48.1144 53.1936 47.7876 53.4141 47.5588C53.6347 47.33 53.9497 47.1993 54.2962 47.1993H63.7149C64.0614 47.1993 64.3764 47.33 64.5969 47.5588C64.8174 47.7876 64.9434 48.1144 64.9434 48.4739V49.4217C64.9434 49.912 65.3214 50.3041 65.7939 50.3041H71.8736C72.4406 50.3041 72.9446 50.5329 73.3226 50.9251C73.7006 51.3173 73.9211 51.8402 73.9211 52.4285V68.7044Z" fill="#3A3A3A"/>
<path d="M58.9898 52.5266C56.8477 52.5266 54.8947 53.4417 53.5087 54.8797C52.0911 56.3504 51.2406 58.344 51.2406 60.5664C51.2406 62.7889 52.1226 64.8152 53.5087 66.2532C54.9262 67.7239 56.8477 68.6063 58.9898 68.6063C61.1318 68.6063 63.0849 67.6912 64.4709 66.2532C65.8885 64.7825 66.739 62.7889 66.739 60.5664C66.739 58.344 65.857 56.3177 64.4709 54.8797C63.0849 53.4417 61.1318 52.5266 58.9898 52.5266ZM63.2739 65.0439C62.1714 66.1551 60.6593 66.8742 58.9898 66.8742C57.3202 66.8742 55.8082 66.1551 54.7057 65.0439C53.6032 63.9001 52.9416 62.3313 52.9416 60.5991C52.9416 58.867 53.6347 57.2982 54.7057 56.1543C55.8082 55.0104 57.3202 54.3241 58.9898 54.3241C60.6593 54.3241 62.1714 55.0431 63.2739 56.1543C64.3764 57.2982 65.0379 58.867 65.0379 60.5991C65.0694 62.3313 64.3764 63.9001 63.2739 65.0439Z" fill="#3A3A3A"/>
<path d="M70.2041 55.6968C71.0565 55.6968 71.7476 54.9798 71.7476 54.0953C71.7476 53.2109 71.0565 52.4939 70.2041 52.4939C69.3516 52.4939 68.6605 53.2109 68.6605 54.0953C68.6605 54.9798 69.3516 55.6968 70.2041 55.6968Z" fill="#3A3A3A"/>
</g>
<defs>
<clipPath id="clip0_9_27">
<rect width="33" height="27" fill="white" transform="translate(42.4204 45.4344) scale(1.00468)"/>
</clipPath>
</defs>
</svg>
