<svg width="315" height="53" viewBox="0 0 315 53" fill="none" xmlns="http://www.w3.org/2000/svg">
<rect width="315" height="53" rx="16" fill="#F5F6F8"/>
<path d="M24.9716 31.6729C26.4306 31.6729 27.7929 31.1982 28.9003 30.4072L33.0663 34.5732C33.2597 34.7666 33.5146 34.8633 33.7783 34.8633C34.3495 34.8633 34.7626 34.4238 34.7626 33.8613C34.7626 33.5977 34.6747 33.3516 34.4814 33.1582L30.3417 29.0098C31.2119 27.8672 31.7304 26.4521 31.7304 24.9141C31.7304 21.1963 28.6894 18.1553 24.9716 18.1553C21.2451 18.1553 18.2128 21.1963 18.2128 24.9141C18.2128 28.6318 21.2451 31.6729 24.9716 31.6729ZM24.9716 30.2139C22.0624 30.2139 19.6718 27.8145 19.6718 24.9141C19.6718 22.0137 22.0624 19.6143 24.9716 19.6143C27.872 19.6143 30.2714 22.0137 30.2714 24.9141C30.2714 27.8145 27.872 30.2139 24.9716 30.2139Z" fill="#3D56FA"/>
</svg>
