<svg width="250" height="183" viewBox="0 0 250 183" fill="none" xmlns="http://www.w3.org/2000/svg">
<path d="M0 4.5C0 2.01472 2.01472 0 4.5 0V0C6.98528 0 9 2.01472 9 4.5V122H0V4.5Z" fill="#2D99FF"/>
<path d="M13 149.5C13 151.985 15.0147 154 17.5 154V154C19.9853 154 22 151.985 22 149.5V122H13V149.5Z" fill="#A5F3FF"/>
<path d="M38 26.5C38 24.0147 40.0147 22 42.5 22V22C44.9853 22 47 24.0147 47 26.5V122H38V26.5Z" fill="#2D99FF"/>
<path d="M51 140.5C51 142.985 53.0147 145 55.5 145V145C57.9853 145 60 142.985 60 140.5V122H51V140.5Z" fill="#A5F3FF"/>
<path d="M76 37.5C76 35.0147 78.0147 33 80.5 33V33C82.9853 33 85 35.0147 85 37.5V122H76V37.5Z" fill="#2D99FF"/>
<path d="M89 132.5C89 134.985 91.0147 137 93.5 137V137C95.9853 137 98 134.985 98 132.5V122H89V132.5Z" fill="#A5F3FF"/>
<path d="M114 65.5C114 63.0147 116.015 61 118.5 61V61C120.985 61 123 63.0147 123 65.5V122H114V65.5Z" fill="#2D99FF"/>
<path d="M127 124.5C127 126.985 129.015 129 131.5 129V129C133.985 129 136 126.985 136 124.5V122H127V124.5Z" fill="#A5F3FF"/>
<path d="M152 178.5C152 180.985 154.015 183 156.5 183V183C158.985 183 161 180.985 161 178.5V122H152V178.5Z" fill="#2D99FF"/>
<path d="M165 99.5C165 97.0147 167.015 95 169.5 95V95C171.985 95 174 97.0147 174 99.5V122H165V99.5Z" fill="#A5F3FF"/>
<path d="M190 132.5C190 134.985 192.015 137 194.5 137V137C196.985 137 199 134.985 199 132.5V122H190V132.5Z" fill="#2D99FF"/>
<path d="M203 56.5C203 54.0147 205.015 52 207.5 52V52C209.985 52 212 54.0147 212 56.5V122H203V56.5Z" fill="#A5F3FF"/>
<path d="M228 127.5C228 129.985 230.015 132 232.5 132V132C234.985 132 237 129.985 237 127.5V122H228V127.5Z" fill="#2D99FF"/>
<path d="M241 18.5C241 16.0147 243.015 14 245.5 14V14C247.985 14 250 16.0147 250 18.5V122H241V18.5Z" fill="#A5F3FF"/>
</svg>
