<svg width="48" height="48" viewBox="0 0 48 48" fill="none" xmlns="http://www.w3.org/2000/svg">
<path d="M48 24C48 37.2548 37.2548 48 24 48C10.7452 48 0 37.2548 0 24C0 10.7452 10.7452 0 24 0C37.2548 0 48 10.7452 48 24Z" fill="#FF8787"/>
<g clip-path="url(#clip0_18_424)">
<path d="M32.266 20.4801L34.067 18.8789L34.0739 18.8732C35.522 17.5316 36.2191 15.5647 35.9392 13.6104L35.8738 13.1464C35.7952 12.6189 35.3811 12.2046 34.8537 12.1259L34.3932 12.0609C32.435 11.7804 30.4641 12.4804 29.1212 13.933L27.5199 15.7343L26.6545 15.2364C24.3763 13.9297 21.7951 13.2441 19.1688 13.2479L18.4241 13.2506C17.7101 13.2539 17.0514 13.6357 16.6935 14.2535L16.5533 14.4971C16.4428 14.6889 16.5084 14.9339 16.7 15.0446L24.3428 19.4573L18.3704 26.224L17.9131 26.812C16.6728 26.1325 15.2815 25.7756 13.8671 25.7742L13.263 25.7715C12.8354 25.7764 12.4413 26.0046 12.2245 26.3732L12.0539 26.6653C12.0006 26.7573 11.9861 26.867 12.0137 26.9699C12.0411 27.0727 12.1085 27.1604 12.2008 27.2135L16.0918 29.46C15.9815 29.6733 15.8769 29.8872 15.7817 30.107C15.5725 30.6025 15.6239 31.1698 15.9187 31.6197C16.2134 32.0696 16.7129 32.3433 17.2508 32.3495C17.4716 32.3492 17.69 32.3037 17.8927 32.2164C17.9029 32.2122 17.9131 32.2075 17.9227 32.2022C18.1232 32.1161 18.3299 32.0146 18.5397 31.9063L20.7861 35.7973C20.839 35.89 20.9266 35.9579 21.0296 35.9858C21.1326 36.0138 21.2425 35.9995 21.335 35.9462L21.6298 35.7758H21.6321C22.0006 35.557 22.2278 35.1611 22.2307 34.7327L22.228 34.1361C22.2262 32.7205 21.8683 31.3281 21.1873 30.087L21.7669 29.6361L28.5389 23.6566L32.9539 31.3004C33.0647 31.492 33.3098 31.5578 33.5015 31.4473L33.745 31.3073C34.363 30.9492 34.7447 30.2903 34.7479 29.576L34.7502 28.8322C34.761 26.2052 34.0751 23.622 32.7625 21.3463L32.266 20.4801ZM18.427 14.0529L19.1715 14.0501C21.6566 14.0445 24.0992 14.6934 26.2538 15.9315L26.9856 16.3525L24.878 18.8428L17.4529 14.5547C17.6788 14.2415 18.0408 14.0551 18.427 14.0529ZM13.265 26.5738L13.8667 26.5765C15.1038 26.5767 16.3224 26.8772 17.4177 27.4523L17.1658 27.7769C17.0201 27.961 16.8818 28.1555 16.747 28.3553C16.7069 28.4131 16.6708 28.472 16.6326 28.531C16.5833 28.6076 16.5315 28.6814 16.4838 28.7599L12.9537 26.7232C13.0301 26.6296 13.1441 26.5748 13.265 26.5738ZM21.4235 34.1367L21.4265 34.7294C21.4265 34.8522 21.3712 34.9684 21.2764 35.046L19.2401 31.5159C19.3179 31.4685 19.3909 31.418 19.4667 31.369C19.5265 31.329 19.5872 31.2924 19.6458 31.2526C19.8403 31.122 20.0293 30.9876 20.2073 30.8476L20.2193 30.8388L20.5483 30.5828C21.1236 31.6791 21.4239 32.8986 21.4235 34.1367ZM21.2547 29.0183L20.4291 29.6602C20.4271 29.6602 20.4244 29.6602 20.4224 29.6637L19.7227 30.2094C19.3361 30.5124 18.9259 30.7845 18.496 31.0225C18.199 31.1908 17.8933 31.3431 17.5803 31.4791C17.5713 31.4826 17.5628 31.4865 17.554 31.491C17.2522 31.6076 16.9098 31.5322 16.6847 31.2999C16.4595 31.0673 16.395 30.7228 16.5212 30.4247C16.6579 30.1093 16.8111 29.8014 16.9805 29.5021C17.2189 29.0702 17.4913 28.6581 17.7955 28.2699L18.3371 27.5749C18.3371 27.5749 18.3371 27.5706 18.3403 27.5686L18.9882 26.7342L29.7151 14.4723C30.7011 13.4085 32.0854 12.803 33.536 12.8015C33.7844 12.8015 34.0324 12.8193 34.2782 12.8551L34.7387 12.9202C34.9146 12.9462 35.0532 13.0839 35.0799 13.26L35.1453 13.7236C35.387 15.4158 34.7833 17.1189 33.5299 18.2811L21.2547 29.0183ZM33.9471 29.5736C33.945 29.9595 33.7583 30.3213 33.4449 30.5467L29.1574 23.1197L31.6486 21.0141L32.0701 21.7467C33.3119 23.9005 33.9605 26.3452 33.9495 28.8314L33.9471 29.5736Z" fill="#A73131"/>
<path d="M31.3761 14.9753C31.8491 14.6954 32.4518 14.7716 32.8402 15.1604C33.2286 15.5494 33.3044 16.1519 33.024 16.6248C32.9109 16.8153 32.9738 17.0614 33.1642 17.1746C33.3548 17.2876 33.601 17.2249 33.714 17.0343C34.1814 16.2465 34.0556 15.2421 33.4083 14.5937C32.7609 13.9456 31.7566 13.8183 30.9681 14.2844C30.8431 14.3565 30.7665 14.4903 30.7675 14.6345C30.7683 14.7788 30.8466 14.9114 30.9726 14.982C31.0985 15.0525 31.2527 15.0499 31.3761 14.9753Z" fill="#A73131"/>
</g>
<defs>
<clipPath id="clip0_18_424">
<rect width="24" height="24" fill="white" transform="translate(12 12)"/>
</clipPath>
</defs>
</svg>
