<svg width="39" height="26" viewBox="0 0 39 26" fill="none" xmlns="http://www.w3.org/2000/svg">
<path d="M26.52 25.1135C33.4125 25.1135 39 19.4916 39 12.5567C39 5.62184 33.4125 0 26.52 0C19.6275 0 14.04 5.62184 14.04 12.5567C14.04 19.4916 19.6275 25.1135 26.52 25.1135Z" fill="#F99600"/>
<path d="M12.48 25.1135C19.3725 25.1135 24.96 19.4916 24.96 12.5567C24.96 5.62184 19.3725 0 12.48 0C5.58748 0 0 5.62184 0 12.5567C0 19.4916 5.58748 25.1135 12.48 25.1135Z" fill="#EC000A"/>
<path fill-rule="evenodd" clip-rule="evenodd" d="M19.5 22.9401C16.2041 20.6799 14.04 16.8726 14.04 12.5567C14.04 8.24088 16.2041 4.43356 19.5 2.17338C22.7959 4.43356 24.96 8.24088 24.96 12.5567C24.96 16.8726 22.7959 20.6799 19.5 22.9401Z" fill="#FF5300"/>
</svg>
