<svg width="263" height="269" viewBox="0 0 263 269" fill="none" xmlns="http://www.w3.org/2000/svg">
<path d="M75.2735 21.5734C81.9524 15.6388 85.2918 12.6716 88.3668 10.5578C111.926 -5.63808 143.641 -2.96307 164.155 16.9503C166.832 19.5493 169.627 23.034 175.218 30.0034L236.652 106.591C248.083 120.842 253.799 127.968 256.918 134.849C266.816 156.688 262.763 182.324 246.61 200.044C241.52 205.627 233.885 210.642 218.614 220.671L157.541 260.783C120.417 285.166 72.5872 251.602 82.8905 208.398L85.484 197.523C91.8329 170.901 70.6679 145.709 43.3501 147.372V147.372C4.69783 149.725 -15.1541 101.923 13.7933 76.2019L75.2735 21.5734Z" fill="#40CEF2"/>
</svg>
