<svg width="246" height="203" viewBox="0 0 246 203" fill="none" xmlns="http://www.w3.org/2000/svg">
<path d="M46.1832 157.365C46.1832 157.365 137.316 81.3066 189.803 157.365Z" fill="#F2F2F2"/>
<path d="M195.728 202.932C219.04 202.932 237.937 199.986 237.937 196.354C237.937 192.721 219.04 189.776 195.728 189.776C172.417 189.776 153.519 192.721 153.519 196.354C153.519 199.986 172.417 202.932 195.728 202.932Z" fill="#F2F2F2"/>
<path d="M202.58 200.465C225.892 200.465 244.789 197.52 244.789 193.887C244.789 190.254 225.892 187.309 202.58 187.309C179.269 187.309 160.371 190.254 160.371 193.887C160.371 197.52 179.269 200.465 202.58 200.465Z" stroke="#3F3D56" stroke-width="0.653417"/>
<path d="M220.53 125.832C222.228 126.449 224.132 125.926 225.277 124.528C226.422 123.129 226.559 121.16 225.618 119.616C224.677 118.073 222.864 117.292 221.096 117.669L221.203 119.86L220.166 117.982C219.149 118.46 218.363 119.322 217.982 120.38C217.846 120.75 217.764 121.137 217.737 121.531C217.602 123.427 218.742 125.183 220.53 125.832Z" fill="#57B894"/>
<path d="M225.658 151.24C225.292 149.377 226.877 147.725 228.443 146.651C230.009 145.578 231.839 144.523 232.373 142.701C233.141 140.083 230.854 137.685 229.074 135.617C227.753 134.082 226.619 132.396 225.695 130.595C225.293 129.887 225.019 129.114 224.886 128.311C224.746 127.151 225.119 125.996 225.495 124.889C226.746 121.2 228.084 117.543 229.509 113.917" stroke="#3F3D56" stroke-width="0.653417"/>
<path fill-rule="evenodd" clip-rule="evenodd" d="M220.705 125.268C222.404 125.885 224.307 125.362 225.452 123.964C226.597 122.565 226.734 120.596 225.793 119.052C224.853 117.509 223.04 116.728 221.272 117.105L221.378 119.296L220.342 117.418C219.325 117.896 218.539 118.758 218.157 119.815C218.021 120.186 217.939 120.573 217.912 120.967C217.778 122.863 218.918 124.619 220.705 125.268Z" stroke="#3F3D56" stroke-width="0.653417"/>
<path d="M225.138 113.16C225.632 111.797 226.787 110.78 228.201 110.461L228.552 112.544L229.201 110.357C231.052 110.384 232.673 111.605 233.211 113.377C233.748 115.148 233.079 117.064 231.555 118.115C230.031 119.166 228.003 119.112 226.538 117.981C225.072 116.849 224.506 114.901 225.138 113.16H225.138Z" fill="#57B894"/>
<path fill-rule="evenodd" clip-rule="evenodd" d="M225.371 112.408C225.866 111.045 227.02 110.028 228.435 109.71L228.785 111.792L229.435 109.605C231.286 109.632 232.907 110.853 233.444 112.625C233.982 114.396 233.312 116.312 231.789 117.363C230.265 118.414 228.236 118.36 226.771 117.229C225.306 116.097 224.74 114.149 225.371 112.408H225.371Z" stroke="#3F3D56" stroke-width="0.653417"/>
<path d="M228.327 135.659C230.36 136.397 232.624 135.491 233.588 133.554C234.552 131.617 233.909 129.265 232.093 128.088L231.594 129.769L231.24 127.661C231.237 127.66 231.233 127.658 231.229 127.657C229.8 127.139 228.202 127.422 227.039 128.401C225.875 129.379 225.322 130.904 225.587 132.402C225.853 133.899 226.897 135.14 228.327 135.659H228.327Z" fill="#57B894"/>
<path fill-rule="evenodd" clip-rule="evenodd" d="M228.529 134.897C230.563 135.635 232.827 134.729 233.79 132.792C234.754 130.855 234.111 128.503 232.296 127.326L231.797 129.007L231.443 126.9C231.439 126.898 231.435 126.897 231.432 126.896C230.002 126.377 228.405 126.661 227.241 127.639C226.078 128.618 225.524 130.143 225.79 131.64C226.056 133.137 227.1 134.379 228.529 134.897L228.529 134.897Z" stroke="#3F3D56" stroke-width="0.653417"/>
<path d="M223.896 142.727C224.244 144.708 225.932 146.175 227.942 146.242C229.952 146.31 231.735 144.96 232.216 143.007C232.697 141.054 231.744 139.031 229.932 138.158C228.119 137.285 225.944 137.801 224.716 139.394L226.612 142.248L224.021 140.733C223.82 141.378 223.777 142.062 223.896 142.727Z" fill="#57B894"/>
<path fill-rule="evenodd" clip-rule="evenodd" d="M224.071 142.163C224.419 144.144 226.107 145.611 228.117 145.678C230.128 145.746 231.911 144.396 232.391 142.443C232.872 140.49 231.919 138.467 230.107 137.594C228.295 136.721 226.119 137.237 224.891 138.83L226.787 141.684L224.196 140.17C223.995 140.814 223.952 141.498 224.071 142.163Z" stroke="#3F3D56" stroke-width="0.653417"/>
<path d="M219.749 153.763C219.749 153.763 223.505 152.291 224.636 151.485C225.768 150.679 230.414 149.717 230.695 151.01C230.975 152.302 236.339 157.439 232.099 157.473C227.858 157.507 222.246 158.169 221.116 157.481C219.987 156.792 219.749 153.763 219.749 153.763Z" fill="#656380"/>
<path opacity="0.2" d="M232.174 157.023C227.934 157.057 222.322 157.719 221.192 157.03C220.332 156.506 219.989 154.626 219.874 153.758C219.795 153.762 219.749 153.763 219.749 153.763C219.749 153.763 219.987 156.792 221.116 157.48C222.246 158.169 227.858 157.507 232.099 157.473C233.323 157.463 233.745 157.027 233.722 156.383C233.552 156.772 233.085 157.016 232.174 157.023Z" fill="black"/>
<path d="M52.2811 114.197H51.3227C47.0461 114.197 43.5793 117.664 43.5793 121.94V149.759C43.5793 154.035 47.0461 157.502 51.3227 157.502H52.2811C56.5576 157.502 60.0244 154.035 60.0244 149.759V121.94C60.0244 117.664 56.5576 114.197 52.2811 114.197Z" fill="#2A46FF"/>
<path d="M83.5267 88.1588H82.5683C78.2918 88.1588 74.825 91.6256 74.825 95.9021V149.759C74.825 154.035 78.2918 157.502 82.5683 157.502H83.5267C87.8032 157.502 91.27 154.035 91.27 149.759V95.9021C91.27 91.6256 87.8032 88.1588 83.5267 88.1588Z" fill="#2A46FF"/>
<path d="M114.772 70.0692H113.814C109.537 70.0692 106.071 73.536 106.071 77.8125V149.759C106.071 154.035 109.537 157.502 113.814 157.502H114.772C119.049 157.502 122.516 154.035 122.516 149.759V77.8125C122.516 73.536 119.049 70.0692 114.772 70.0692Z" fill="#2A46FF"/>
<path d="M146.018 52.802H145.059C140.783 52.802 137.316 56.2688 137.316 60.5453V149.759C137.316 154.035 140.783 157.502 145.059 157.502H146.018C150.294 157.502 153.761 154.035 153.761 149.759V60.5453C153.761 56.2688 150.294 52.802 146.018 52.802Z" fill="#2A46FF"/>
<path d="M177.263 22.6527H176.305C172.029 22.6527 168.562 26.1195 168.562 30.396V149.759C168.562 154.035 172.029 157.502 176.305 157.502H177.263C181.54 157.502 185.007 154.035 185.007 149.759V30.396C185.007 26.1195 181.54 22.6527 177.263 22.6527Z" fill="#2A46FF"/>
<path d="M54.4738 112.004H53.5154C49.2388 112.004 45.772 115.471 45.772 119.747V147.566C45.772 151.843 49.2388 155.309 53.5154 155.309H54.4738C58.7503 155.309 62.2171 151.843 62.2171 147.566V119.747C62.2171 115.471 58.7503 112.004 54.4738 112.004Z" stroke="#3F3D56" stroke-width="0.653417"/>
<path d="M85.7194 85.9661H84.761C80.4844 85.9661 77.0176 89.4329 77.0176 93.7094V147.566C77.0176 151.843 80.4844 155.309 84.761 155.309H85.7194C89.9959 155.309 93.4627 151.843 93.4627 147.566V93.7094C93.4627 89.4329 89.9959 85.9661 85.7194 85.9661Z" stroke="#3F3D56" stroke-width="0.653417"/>
<path d="M116.965 67.8766H116.007C111.73 67.8766 108.263 71.3434 108.263 75.6199V147.566C108.263 151.843 111.73 155.309 116.007 155.309H116.965C121.241 155.309 124.708 151.843 124.708 147.566V75.6199C124.708 71.3434 121.241 67.8766 116.965 67.8766Z" stroke="#3F3D56" stroke-width="0.653417"/>
<path d="M148.211 50.6093H147.252C142.976 50.6093 139.509 54.0761 139.509 58.3526V147.566C139.509 151.843 142.976 155.309 147.252 155.309H148.211C152.487 155.309 155.954 151.843 155.954 147.566V58.3526C155.954 54.0761 152.487 50.6093 148.211 50.6093Z" stroke="#3F3D56" stroke-width="0.653417"/>
<path d="M179.456 20.46H178.498C174.221 20.46 170.754 23.9268 170.754 28.2033V147.566C170.754 151.843 174.221 155.309 178.498 155.309H179.456C183.733 155.309 187.199 151.843 187.199 147.566V28.2033C187.199 23.9268 183.733 20.46 179.456 20.46Z" stroke="#3F3D56" stroke-width="0.653417"/>
<path d="M235.986 157.639H0" stroke="#3F3D56" stroke-width="0.653417"/>
<path d="M221.105 131.348C221.105 131.348 223.684 140.634 220.417 142.009C217.149 143.385 218.181 131.692 218.181 131.692L221.105 131.348Z" fill="#A0616A"/>
<path d="M197.718 190.845C197.718 190.845 195.311 190.673 194.451 191.189C193.93 191.494 193.302 191.557 192.732 191.361C192.732 191.361 188.948 191.017 190.324 192.909C191.7 194.8 193.075 195.488 193.075 196.348C193.075 197.208 198.75 197.208 198.922 196.348C199.094 195.488 199.266 191.017 198.922 190.845C198.578 190.673 197.718 190.845 197.718 190.845Z" fill="#575A89"/>
<path d="M204.081 190.845C204.081 190.845 206.488 190.673 207.348 191.189C207.869 191.494 208.497 191.557 209.068 191.361C209.068 191.361 212.851 191.017 211.475 192.909C210.099 194.8 208.724 195.488 208.724 196.348C208.724 197.208 203.049 197.208 202.877 196.348C202.705 195.488 202.533 191.017 202.877 190.845C203.221 190.673 204.081 190.845 204.081 190.845Z" fill="#575A89"/>
<path d="M190.668 129.456C190.668 129.456 189.464 156.626 190.152 158.001C190.84 159.377 193.247 182.591 192.903 183.967C192.56 185.343 190.84 191.017 192.903 191.877C194.967 192.737 199.438 191.877 199.438 191.877C199.438 191.877 200.642 184.999 200.126 181.388C199.61 177.776 199.438 162.644 199.438 162.644L202.877 146.824L204.081 161.784C204.081 161.784 204.425 182.247 202.017 186.374C199.61 190.501 202.877 192.221 202.877 192.221C202.877 192.221 209.411 193.081 210.099 192.909C210.787 192.737 209.583 186.03 210.099 183.107C210.615 180.184 211.819 163.848 212.851 159.893C213.882 155.938 219.729 133.927 215.43 129.456C211.131 124.985 190.668 129.456 190.668 129.456Z" fill="#3F3D56"/>
<path d="M203.221 74.6019C206.545 74.6019 209.239 71.9073 209.239 68.5833C209.239 65.2594 206.545 62.5648 203.221 62.5648C199.897 62.5648 197.202 65.2594 197.202 68.5833C197.202 71.9073 199.897 74.6019 203.221 74.6019Z" fill="#A0616A"/>
<path d="M198.75 71.3346C198.75 71.3346 199.782 79.5886 199.266 79.7605C198.75 79.9325 208.38 79.7605 208.38 79.7605C208.38 79.7605 206.488 74.7738 208.38 70.8187L198.75 71.3346Z" fill="#A0616A"/>
<path d="M198.75 78.041C198.75 78.041 202.941 73.914 207.896 78.041L208.217 79.2712L205.628 79.2447H198.75V78.041Z" fill="#F2F2F2"/>
<path d="M219.213 130.832C218.816 130.911 217.842 131.073 216.573 131.265C212.348 131.903 204.861 132.87 204.597 132.208C204.253 131.348 203.049 128.253 202.189 129.628C201.329 131.004 201.845 132.208 198.234 132.38C195.777 132.497 192.205 132.135 190.228 131.568C189.299 131.301 188.721 130.99 188.776 130.66C188.948 129.628 190.84 110.025 190.84 108.134C190.84 106.242 191.528 97.1283 191.528 97.1283L186.586 87.4041L186.197 86.6389C186.197 86.6389 186.713 84.7473 188.261 84.4034C189.808 84.0595 197.202 79.7606 197.202 79.7606C197.202 79.7606 198.75 77.3532 201.673 77.5251C204.597 77.6971 205.284 76.4934 209.239 79.7606C209.239 79.7606 214.054 81.8241 215.774 82.8558C217.493 83.8876 219.385 83.8876 219.557 85.6071C219.591 85.9528 219.404 86.6183 219.082 87.4591C217.904 90.5406 214.928 95.9934 214.462 96.8429C214.421 96.9168 214.398 96.9564 214.398 96.9564C214.398 96.9564 214.309 100.048 214.403 103.668V103.676C214.496 107.148 214.758 111.105 215.43 113.292C216.806 117.763 220.933 130.488 219.213 130.832Z" fill="#575A89"/>
<path d="M211.034 66.1128C210.914 65.5649 210.682 65.0476 210.354 64.5928C210.223 63.3351 209.803 62.1247 209.128 61.0558C208.863 60.5549 208.488 60.1213 208.03 59.788C207.505 59.486 206.906 59.3367 206.301 59.3572C206.192 59.3554 205.994 59.3887 205.817 59.3967C205.703 59.3616 205.588 59.3301 205.473 59.3006C205.406 59.1513 205.273 58.7161 205.236 58.7455L204.735 59.144C204.523 59.1071 204.309 59.0784 204.096 59.0557C204.018 58.8336 203.94 58.6114 203.862 58.3893C203.736 58.588 203.625 58.7962 203.531 59.0119C203.318 59.0015 203.105 58.9978 202.891 59.001L202.465 58.5916C202.414 58.8249 202.229 59.0057 201.995 59.0521C201.799 59.0722 201.604 59.0985 201.409 59.1298C201.393 59.1297 201.377 59.1298 201.362 59.1294C200.312 59.1033 199.183 59.0562 198.305 59.6324C197.894 59.9144 197.56 60.2939 197.332 60.7368C197.224 60.8098 197.117 60.8823 197.012 60.9598C196.66 61.1999 196.355 61.5024 196.112 61.8523C195.935 62.1541 195.801 62.479 195.714 62.8176C195.379 63.8368 195.223 64.9064 195.255 65.9787C195.291 67.0584 195.698 68.0926 196.408 68.9067C196.858 69.3904 197.431 69.7475 197.881 70.2306C198.81 71.2253 198.984 72.6126 199.777 73.6651C200.617 74.7783 202.15 75.5108 203.495 75.7208C205.13 75.9671 206.795 75.5518 208.122 74.5669C208.437 74.3472 208.705 74.0663 208.91 73.741C209.377 72.933 209.179 71.9174 209.352 71.0003C209.678 69.2814 211.318 67.8389 211.034 66.1128Z" fill="#3F3D56"/>
<path d="M188.089 131.864C188.089 131.864 190.668 141.149 187.401 142.525C184.134 143.901 185.165 132.208 185.165 132.208L188.089 131.864Z" fill="#A0616A"/>
<path opacity="0.1" d="M191.182 110.792C191.182 110.792 190.054 127.534 190.228 131.568C189.299 131.301 188.721 130.99 188.777 130.66C188.948 129.628 190.84 110.025 190.84 108.134C190.84 106.242 191.528 97.1283 191.528 97.1283L186.586 87.4041C186.665 86.9226 186.713 86.6389 186.713 86.6389L189.206 91.8836L192.732 92.8294L191.182 110.792Z" fill="black"/>
<path d="M187.401 85.6072L186.197 86.6389C186.197 86.6389 184.65 95.7527 184.821 97.9881C184.993 100.224 181.21 134.099 184.134 134.099C187.057 134.099 190.324 133.583 189.808 132.38C189.292 131.176 190.667 110.792 190.667 110.792L192.216 92.8294L187.401 85.6072Z" fill="#575A89"/>
<path opacity="0.1" d="M219.082 87.4592C217.904 90.5406 214.928 95.9934 214.462 96.8429C214.476 94.6436 214.484 93.0873 214.484 93.0873L218.095 85.6932L218.869 85.0913C218.869 85.0913 218.952 86.001 219.082 87.4592Z" fill="black"/>
<path opacity="0.1" d="M219.213 130.832C218.816 130.911 217.842 131.073 216.573 131.265C215.915 126.395 214.154 112.391 214.266 111.072C214.321 110.422 214.367 107.21 214.403 103.676C214.496 107.148 214.758 111.105 215.43 113.292C216.806 117.763 220.933 130.488 219.213 130.832Z" fill="black"/>
<path d="M216.978 84.4034L219.557 85.0913C219.557 85.0913 221.276 104.179 221.448 107.446C221.62 110.713 223.684 130.832 223.34 131.692C222.996 132.552 217.665 133.755 217.493 132.896C217.321 132.036 214.822 112.635 214.954 111.072C215.086 109.509 214.226 93.3452 214.226 93.3452L216.978 84.4034Z" fill="#575A89"/>
<path d="M53.8575 95.422L85.1031 69.384L116.623 51.5685L147.868 34.3012L179.114 4.15198" stroke="#3F3D56" stroke-width="0.653417"/>
<path d="M53.0353 99.8073C54.7003 99.8073 56.0502 98.4575 56.0502 96.7924C56.0502 95.1273 54.7003 93.7775 53.0353 93.7775C51.3702 93.7775 50.0203 95.1273 50.0203 96.7924C50.0203 98.4575 51.3702 99.8073 53.0353 99.8073Z" fill="#F2F2F2"/>
<path d="M84.2809 73.7693C85.946 73.7693 87.2958 72.4195 87.2958 70.7544C87.2958 69.0893 85.946 67.7395 84.2809 67.7395C82.6158 67.7395 81.2659 69.0893 81.2659 70.7544C81.2659 72.4195 82.6158 73.7693 84.2809 73.7693Z" fill="#F2F2F2"/>
<path d="M115.801 55.9539C117.466 55.9539 118.815 54.6041 118.815 52.939C118.815 51.2739 117.466 49.9241 115.801 49.9241C114.135 49.9241 112.786 51.2739 112.786 52.939C112.786 54.6041 114.135 55.9539 115.801 55.9539Z" fill="#F2F2F2"/>
<path d="M147.046 38.6866C148.711 38.6866 150.061 37.3368 150.061 35.6717C150.061 34.0066 148.711 32.6567 147.046 32.6567C145.381 32.6567 144.031 34.0066 144.031 35.6717C144.031 37.3368 145.381 38.6866 147.046 38.6866Z" fill="#F2F2F2"/>
<path d="M178.292 8.5373C179.957 8.5373 181.307 7.18747 181.307 5.52237C181.307 3.85727 179.957 2.50745 178.292 2.50745C176.627 2.50745 175.277 3.85727 175.277 5.52237C175.277 7.18747 176.627 8.5373 178.292 8.5373Z" fill="#F2F2F2"/>
<path d="M53.8575 98.437C55.5226 98.437 56.8724 97.0871 56.8724 95.422C56.8724 93.7569 55.5226 92.4071 53.8575 92.4071C52.1924 92.4071 50.8426 93.7569 50.8426 95.422C50.8426 97.0871 52.1924 98.437 53.8575 98.437Z" stroke="#3F3D56" stroke-width="0.653417"/>
<path d="M85.1031 72.399C86.7682 72.399 88.118 71.0492 88.118 69.3841C88.118 67.719 86.7682 66.3691 85.1031 66.3691C83.438 66.3691 82.0882 67.719 82.0882 69.3841C82.0882 71.0492 83.438 72.399 85.1031 72.399Z" stroke="#3F3D56" stroke-width="0.653417"/>
<path d="M116.623 54.5834C118.288 54.5834 119.638 53.2336 119.638 51.5685C119.638 49.9034 118.288 48.5536 116.623 48.5536C114.958 48.5536 113.608 49.9034 113.608 51.5685C113.608 53.2336 114.958 54.5834 116.623 54.5834Z" stroke="#3F3D56" stroke-width="0.653417"/>
<path d="M147.868 37.3162C149.533 37.3162 150.883 35.9664 150.883 34.3013C150.883 32.6362 149.533 31.2864 147.868 31.2864C146.203 31.2864 144.853 32.6362 144.853 34.3013C144.853 35.9664 146.203 37.3162 147.868 37.3162Z" stroke="#3F3D56" stroke-width="0.653417"/>
<path d="M179.114 7.16694C180.779 7.16694 182.129 5.81711 182.129 4.15201C182.129 2.48691 180.779 1.13708 179.114 1.13708C177.449 1.13708 176.099 2.48691 176.099 4.15201C176.099 5.81711 177.449 7.16694 179.114 7.16694Z" stroke="#3F3D56" stroke-width="0.653417"/>
</svg>
