<svg width="48" height="48" viewBox="0 0 48 48" fill="none" xmlns="http://www.w3.org/2000/svg">
<path d="M48 24C48 37.2548 37.2548 48 24 48C10.7452 48 0 37.2548 0 24C0 10.7452 10.7452 0 24 0C37.2548 0 48 10.7452 48 24Z" fill="#87F0FF"/>
<path d="M22.7433 24.6875L21.998 22.0125C22.7867 21.825 25.0736 20.9177 25.6705 22.5396C25.963 24.2917 23.5277 24.4948 22.7433 24.6875ZM23.0564 26.0552L23.8743 29.0021C24.8147 28.7646 27.6617 28.5229 27.3854 26.5531C26.9163 24.8177 24 25.8177 23.0564 26.0552V26.0552ZM37 25.5C37 32.4031 31.1793 38 24 38C16.8208 38 11 32.4031 11 25.5C11 18.5969 16.8208 13 24 13C31.1793 13 37 18.5969 37 25.5ZM30.1306 26.1885C29.9323 24.9896 28.5695 24.0062 27.4385 23.8948C28.1351 23.301 28.4883 22.4354 28.056 21.3031C27.4028 19.8781 25.9013 19.574 24.0639 19.8687L23.4724 17.6667L22.0803 18.0125L22.661 20.2083C22.2948 20.2969 21.9189 20.3729 21.5463 20.475L20.9645 18.2917L19.5724 18.6375L20.1628 20.8396C19.8628 20.9219 17.3516 21.5406 17.3516 21.5406L17.734 22.975C17.734 22.975 18.7567 22.699 18.7469 22.7208C19.3146 22.5781 19.5822 22.851 19.7067 23.1083L21.3296 29.1427C21.3491 29.3177 21.3166 29.6156 20.9266 29.7167C20.9493 29.7292 19.9137 29.9677 19.9137 29.9677L20.0653 31.6396C20.0653 31.6396 22.5527 31.0271 22.8798 30.9479L23.4768 33.175L24.8688 32.8292L24.2719 30.5865C24.6543 30.501 25.027 30.4115 25.3899 30.3198L25.9836 32.55L27.3757 32.2042L26.7788 29.9802C28.9259 29.4781 30.4404 28.1781 30.1306 26.1885V26.1885Z" fill="#2F9399"/>
</svg>
