<svg width="296" height="322" viewBox="0 0 296 322" fill="none" xmlns="http://www.w3.org/2000/svg">
<path d="M247.633 260.67C272.337 240.365 284.689 230.213 290.455 217.58C295.531 206.459 297.091 194.054 294.927 182.023C292.468 168.356 283.015 155.461 264.108 129.671L211.917 58.4834C189.06 27.3054 177.631 11.7164 163.117 5.22763C150.378 -0.46739 136.053 -1.54704 122.605 2.17426C107.282 6.41422 93.6454 20.1141 66.3728 47.5138L39.634 74.3772C19.47 94.6353 9.38792 104.764 4.86273 115.313C-3.35987 134.48 -1.04508 156.542 10.9769 173.585C17.593 182.965 29.5579 190.78 53.4877 206.412L63.3723 212.869C64.2447 213.439 64.681 213.724 65.0907 214.001C80.269 224.277 89.9213 240.924 91.2991 259.201C91.3363 259.695 91.3669 260.215 91.4281 261.255V261.255C91.6369 264.804 91.7412 266.579 91.8549 267.739C96.4316 314.478 150.482 338.1 187.892 309.713C188.822 309.008 190.195 307.879 192.941 305.622L247.633 260.67Z" fill="#B52FF8"/>
</svg>
