<svg width="22" height="21" viewBox="0 0 22 21" fill="none" xmlns="http://www.w3.org/2000/svg">
<path d="M8.97168 15.6729C10.4307 15.6729 11.793 15.1982 12.9004 14.4072L17.0664 18.5732C17.2598 18.7666 17.5147 18.8633 17.7784 18.8633C18.3496 18.8633 18.7627 18.4238 18.7627 17.8613C18.7627 17.5977 18.6748 17.3516 18.4815 17.1582L14.3418 13.0098C15.212 11.8672 15.7305 10.4521 15.7305 8.91406C15.7305 5.19629 12.6895 2.15527 8.97168 2.15527C5.24512 2.15527 2.21289 5.19629 2.21289 8.91406C2.21289 12.6318 5.24512 15.6729 8.97168 15.6729ZM8.97168 14.2139C6.0625 14.2139 3.67187 11.8145 3.67187 8.91406C3.67187 6.01367 6.0625 3.61426 8.97168 3.61426C11.8721 3.61426 14.2715 6.01367 14.2715 8.91406C14.2715 11.8145 11.8721 14.2139 8.97168 14.2139Z" fill="#3D56FA"/>
</svg>
