<svg width="22" height="22" viewBox="0 0 22 22" fill="none" xmlns="http://www.w3.org/2000/svg">
<g clip-path="url(#clip0_15_88)">
<path d="M9.27248 18.6855C10.5293 19.9423 11.8213 19.9599 13.1133 18.6767L18.6768 13.122C19.96 11.8388 19.9424 10.538 18.6856 9.28124L10.0899 0.70312C9.43068 0.0439401 9.06148 0 8.12988 0H4.79004C3.8584 0 3.56836 0.22851 2.90918 0.88769L0.88769 2.90918C0.21972 3.57714 0 3.86718 0 4.79882V8.13867C0 9.06154 0.03515 9.43944 0.70312 10.0986L9.27248 18.6855ZM6.2666 7.03125C5.58105 7.03125 5.0625 6.49511 5.0625 5.82714C5.0625 5.15039 5.58105 4.62304 6.2666 4.62304C6.95215 4.62304 7.4707 5.15039 7.4707 5.82714C7.4707 6.49511 6.95215 7.03125 6.2666 7.03125Z" fill="#2B47FC"/>
</g>
<defs>
<clipPath id="clip0_15_88">
<rect width="22" height="22" fill="white"/>
</clipPath>
</defs>
</svg>
