<svg width="110" height="110" viewBox="0 0 110 110" fill="none" xmlns="http://www.w3.org/2000/svg">
<path d="M55 110C85.3757 110 110 85.3757 110 55C110 24.6243 85.3757 0 55 0C24.6243 0 0 24.6243 0 55C0 85.3757 24.6243 110 55 110Z" fill="#69F0AE"/>
<path d="M77.5877 38.7519C76.679 37.8519 75.2058 37.8519 74.2969 38.7519L46.419 66.3603L35.7031 55.7482C34.7944 54.8482 33.3212 54.8483 32.4124 55.7482C31.5036 56.648 31.5036 58.107 32.4124 59.007L44.7736 71.2484C45.682 72.1483 47.1563 72.1476 48.0643 71.2484L77.5877 42.0108C78.4965 41.1109 78.4964 39.6519 77.5877 38.7519Z" fill="white" stroke="white" stroke-width="4.88889"/>
</svg>
