<svg width="22" height="37" viewBox="0 0 22 37" fill="none" xmlns="http://www.w3.org/2000/svg">
<path fill-rule="evenodd" clip-rule="evenodd" d="M11 12.0474C8.10764 12.0474 5.76303 9.70281 5.76303 6.81041V5.76301C5.76303 2.87061 8.10764 0.526002 11 0.526002C13.8924 0.526002 16.237 2.87061 16.237 5.76301V6.81041C16.237 9.70281 13.8924 12.0474 11 12.0474Z" stroke="#2B47FC" stroke-width="1.05" stroke-linecap="square"/>
<path fill-rule="evenodd" clip-rule="evenodd" d="M21.474 19.8275C21.474 18.2035 20.4088 16.7754 18.8519 16.3124C17.0105 15.7646 14.293 15.1896 11 15.1896C7.70699 15.1896 4.9895 15.7646 3.14817 16.3124C1.59121 16.7754 0.526002 18.2035 0.526002 19.8275V23.5688H21.474V19.8275Z" stroke="#2B47FC" stroke-width="1.05" stroke-linecap="square"/>
<circle cx="11.0456" cy="34.0884" r="2.50466" fill="#2B47FC"/>
</svg>
